<svg id="eOHJR2mwu681" xmlns="http://www.w3.org/2000/svg" xmlns:xlink="http://www.w3.org/1999/xlink" viewBox="0 0 500 500" shape-rendering="geometricPrecision" text-rendering="geometricPrecision" project-id="3eee89e195574b9ebcc7e7c676908ab3" export-id="901031fb5afc4cffbdc08c79e497d2c3" cached="false"><g transform="translate(40.495919 43.654404)"><path d="M106.81,333.08c26.89-20.79,91.45-41.73,170.6-9c33.35,14.26,7.15,18.68-8.32,16.27-19.56-3-6.67,19.82-35,24.51s-90,.11-111.49-6.83c-15.79-5.1-31.31-12.95-15.79-24.95Z" fill="#804d2d"/><path d="M218.62,195.1c-8.75-42.79,35.11-79.55,100-64.48-10.97,81.65-66.41,47-100,64.48Z" fill="#82b50e"/><path d="M201.84,181.8c-14.06-25.81-50.13-19-70.62-50-17-25.66-8.51-85.88-8.51-85.88c21.47,30.69,110.52,36.32,79.13,135.88Z" fill="#82b50e"/><path d="M157,102.11c94.82,113.91,12.86,135,34.35,220" fill="none" stroke="#5e8506" stroke-width="7" stroke-linecap="round" stroke-miterlimit="10"/><path d="M201.84,222c2.85-16,34.71-60.91,85-80.5" fill="none" stroke="#5e8506" stroke-width="7" stroke-linecap="round" stroke-miterlimit="10"/></g></svg>
